<svg width="1440" height="563" viewBox="0 0 1440 563" fill="none" xmlns="http://www.w3.org/2000/svg">
<mask id="mask0_17_3" style="mask-type:alpha" maskUnits="userSpaceOnUse" x="0" y="0" width="1440" height="563">
<rect width="1440" height="563" fill="#D9E5BA"/>
</mask>
<g mask="url(#mask0_17_3)">
<rect width="1440" height="563" fill="#D9E5BA"/>
<circle cx="155" cy="61" r="399" stroke="white" stroke-width="2"/>
<circle cx="192" cy="120" r="300" fill="#336633"/>
<circle cx="96" cy="142" r="299" stroke="white" stroke-width="2"/>
<circle cx="1312" cy="210" r="250" fill="#8DAB41"/>
<circle cx="1380" cy="316" r="150" fill="#336633"/>
<circle cx="52" cy="194" r="200" fill="#8DAB41"/>
<circle cx="767" cy="-124" r="249" stroke="white" stroke-width="2"/>
<circle cx="734" cy="-56" r="150" fill="#8DAB41"/>
<circle cx="1366" cy="203" r="349" stroke="white" stroke-width="2"/>
<g clip-path="url(#clip0_17_3)">
<path d="M81.7152 380.285C81.8779 380.285 82.0407 380.268 82.2034 380.241C83.7117 379.97 84.7207 378.527 84.4495 377.019C83.169 369.842 80.9988 362.359 68.7933 349.821C63.9096 344.799 63.486 337.715 63.0311 330.25C62.6839 324.503 62.3259 318.562 59.9495 313.031C56.0103 303.826 56.9652 293.34 62.4339 285.701C63.6926 283.955 65.1791 282.397 66.8506 281.08C71.2568 277.624 74.795 272.698 77.0832 266.844C78.9825 261.997 81.9096 257.969 85.795 254.878C89.9409 251.569 94.8332 249.75 100.097 249.622C105.16 249.236 110.194 250.549 114.604 253.434C118.684 256.114 121.917 259.819 124.184 264.458C124.878 265.842 126.56 266.39 127.906 265.728C129.284 265.05 129.848 263.384 129.176 262.006C126.452 256.467 122.578 252.016 117.651 248.79C112.243 245.237 106.028 243.633 99.8124 244.072C93.4929 244.23 87.4166 246.463 82.3228 250.538C77.67 254.243 74.1631 259.049 71.9166 264.816C69.986 269.75 67.045 273.861 63.42 276.708C61.3263 278.354 59.4825 280.285 57.92 282.472C51.3228 291.674 50.1492 304.229 54.8492 315.226C56.8367 319.868 57.1492 325.076 57.486 330.597C57.9742 338.75 58.4843 347.177 64.8193 353.681C76.8436 366.038 78.0242 372.66 78.9791 377.979C79.2186 379.312 80.3923 380.285 81.7152 380.285ZM251.062 277.649C249.348 269.632 245.278 262.365 239.399 256.74C233.712 250.757 226.476 246.677 218.469 244.951C211.111 243.363 203.788 243.78 196.778 246.161C190.559 248.277 184.17 248.673 178.267 247.36C175.012 246.617 171.642 246.373 168.41 246.59C154.444 247.485 142.417 256.392 137.014 269.882C134.673 275.667 130.368 280.215 125.785 285.042C119.083 292.09 112.173 299.347 112.173 310.701C112.173 331.319 108.929 335.549 105.489 340.031C101.139 345.712 96.6353 351.587 96.4513 380.378C96.4242 384.528 97.8273 388.448 100.316 391.729L100.048 391.993C100.052 391.99 100.045 391.997 100.048 391.993L75.0311 417.021C73.9461 418.106 73.9461 419.864 75.0311 420.948C75.5728 421.5 76.2916 421.778 76.9964 421.778C77.7124 421.778 78.4179 421.506 78.9603 420.964L103.648 395.933L103.951 395.63C107.475 398.229 111.798 399.741 116.291 399.741C144.656 399.741 150.329 395.293 155.805 390.984C160.201 387.545 164.343 384.293 185.191 384.293C196.506 384.293 203.767 377.342 210.788 370.627C215.583 366.033 220.121 361.696 225.892 359.37C239.326 353.957 248.159 341.845 249.059 327.832C249.265 324.527 249.057 321.234 248.33 317.991C247.006 312.05 247.418 305.627 249.512 299.415C252.243 292.368 252.625 285.042 251.062 277.649ZM244.569 297.646C242.15 304.819 241.683 312.278 243.224 319.212C243.842 321.952 244.07 324.75 243.897 327.528C243.137 339.389 235.563 349.622 224.126 354.226C217.366 356.955 212.234 361.872 207.265 366.622C200.754 372.854 194.591 378.747 185.508 378.747C162.744 378.747 157.643 382.75 152.706 386.618C147.952 390.34 143.036 394.191 116.595 394.191C113.598 394.191 110.841 393.075 108.4 391.492L167.035 332.889H204.778C206.308 332.889 207.555 331.647 207.555 330.111C207.555 328.576 206.308 327.333 204.778 327.333H172.58L206.743 293.181C207.828 292.097 207.828 290.342 206.743 289.257C205.647 288.162 203.889 288.184 202.816 289.257L146.132 345.597V313.444C146.132 311.909 144.884 310.667 143.354 310.667C141.824 310.667 140.576 311.909 140.576 313.444V350.979C140.576 351.027 140.624 351.054 140.627 351.102L104.099 387.63C102.658 385.462 101.664 383.053 101.68 380.421C101.854 353.484 105.781 348.362 109.58 343.407C113.604 338.157 117.402 333.203 117.402 310.699C117.402 301.578 123.274 295.401 129.489 288.855C134.535 283.861 139.43 278.722 142.174 271.941C146.764 260.465 156.965 252.865 168.771 252.111C169.378 252.073 169.986 252.051 170.604 252.051C172.753 252.051 174.913 252.296 177.049 252.779C183.962 254.319 191.393 253.858 198.566 251.422C204.643 249.36 210.938 249.002 217.295 250.375C224.209 251.872 230.459 255.392 235.469 260.66C240.636 265.601 244.139 271.879 245.636 278.813C247 285.215 246.653 291.535 244.569 297.646Z" fill="#D9E5BA"/>
</g>
<g clip-path="url(#clip1_17_3)">
<path d="M1332.18 277.946C1331.29 276.899 1329.77 276.775 1328.74 277.627C1327.71 278.489 1327.57 280.027 1328.43 281.061C1335.53 289.616 1339.12 300.584 1339.12 313.716C1339.12 356.007 1297.84 372.125 1271.82 372.125H1260.18C1234.16 372.125 1192.88 356.007 1192.88 313.716C1192.88 300.59 1196.46 289.603 1203.55 281.054C1204.4 280.016 1204.26 278.478 1203.22 277.62C1202.23 276.788 1200.65 276.91 1199.8 277.946C1192.08 287.27 1188 299.609 1188 313.716C1188 359.816 1232.27 377 1260.18 377H1271.82C1299.73 377 1344 359.816 1344 313.716C1344 299.64 1339.92 287.27 1332.18 277.946ZM1207.5 272.188H1232.81L1224.81 288.153C1224.35 289.098 1224.53 290.225 1225.26 290.987C1226 291.725 1227.14 291.896 1228.07 291.444L1266 272.462L1303.9 291.419C1304.27 291.596 1304.63 291.688 1305 291.688C1305.63 291.688 1306.26 291.44 1306.72 290.973C1307.47 290.23 1307.65 289.098 1307.18 288.16L1299.18 272.188H1324.5C1325.48 272.188 1326.25 271.488 1326.63 270.583C1327.01 269.678 1326.7 268.522 1326.02 267.822C1321.03 262.681 1302.23 246.32 1268.44 245.521V242.934C1268.44 234.534 1264.43 226.518 1257.72 221.478C1256.63 220.683 1255.11 220.897 1254.3 221.969C1253.48 223.046 1253.72 224.574 1254.79 225.384C1260.27 229.504 1263.56 236.064 1263.56 242.934V245.521C1229.8 246.32 1210.99 262.681 1205.89 267.922C1205.13 268.593 1204.86 269.664 1205.22 270.612C1205.58 271.548 1206.49 272.188 1207.5 272.188ZM1263.56 250.366V257.288C1263.56 258.903 1264.66 260 1266 260C1267.34 260 1268.44 258.909 1268.44 257.562V250.366C1294 250.99 1310.36 260.64 1318.22 267.313H1295.25C1294.4 267.313 1293.62 267.751 1293.17 268.469C1292.74 269.188 1292.69 270.083 1293.07 270.84L1299.55 283.799L1267.07 267.568C1266.73 267.404 1266.37 267.313 1266 267.313C1265.63 267.313 1265.27 267.404 1264.9 267.556L1232.45 283.796L1238.94 270.838C1239.32 270.081 1239.27 269.186 1238.83 268.467C1238.36 267.739 1237.6 267.313 1236.75 267.313H1213.79C1221.64 260.64 1238.03 250.99 1263.56 250.366Z" fill="#D9E5BA"/>
</g>
<g clip-path="url(#clip2_17_3)">
<path d="M1295.96 103.139C1273.29 129.434 1231.06 145.125 1183.3 145.125C1175.35 145.125 1168.88 138.848 1168.88 130.835C1168.88 122.822 1175.35 116.813 1183.3 116.813C1214.32 116.813 1225.71 91.6584 1235.77 69.465C1239.25 61.7716 1242.55 54.5018 1246.43 48.7188C1246.91 47.8688 1246.87 46.3453 1245.75 45.6141C1244.63 44.8667 1243.11 45.157 1242.37 46.2759C1238.25 52.4031 1234.87 59.8558 1231.3 67.7441C1221.4 89.6146 1211.17 111.954 1183.28 111.954C1172.66 111.945 1164 120.689 1164 130.835C1164 140.981 1172.66 150 1183.3 150C1232.45 150 1276.05 133.675 1299.9 106.338C1300.79 105.324 1300.68 103.782 1299.66 102.895C1298.4 102.012 1297.12 102.103 1295.96 103.139ZM1311.5 41.2266C1309.17 38.067 1305.96 35.1907 1301.95 32.415C1302.15 32.2615 1302.36 32.1335 1302.51 31.9156C1308.97 22.3789 1311.49 13.6953 1310.01 6.09945C1308.49 -1.77063 1303.15 -5.44516 1302.92 -5.59751C1301.81 -6.3379 1300.32 -6.03333 1299.56 -4.93359C1298.79 -3.8291 1299.08 -2.31511 1300.18 -1.54851C1300.71 -1.18198 1313.01 7.72617 1298.47 29.1945C1298.31 29.4343 1298.38 29.7152 1298.31 29.9806C1292.43 26.2908 1286.55 24.0727 1280.8 23.4816C1269.14 22.2866 1256.92 26.0857 1247.71 34.1365C1247.07 34.6886 1246.77 35.5265 1246.9 36.3549C1247.03 37.1834 1247.58 37.8832 1248.35 38.2163L1269.28 47.1893V71.5216C1269.28 72.869 1270.38 73.9592 1271.72 73.9592H1296.06L1305.04 94.8973C1305.36 95.6684 1306.07 96.2111 1306.9 96.3445C1307.02 96.1008 1307.14 96.375 1307.29 96.375C1307.99 96.375 1308.67 96.0751 1309.13 95.5371C1316.13 87.4781 1320 77.332 1320 66.9422C1320 57.6492 1317.08 48.7524 1311.5 41.2266ZM1307.9 89.2149L1299.91 70.568C1299.52 69.6728 1298.64 69.0921 1297.67 69.0921L1274.16 69.0921V45.5836C1274.16 44.6077 1273.58 43.7268 1272.68 43.3414L1254.04 35.3461C1261.73 29.8678 1271.33 27.4181 1280.31 28.3291C1285.61 28.8718 1291.11 31 1296.65 34.6514L1298.2 35.6703C1302.3 38.3625 1305.37 41.1352 1307.6 44.1211C1312.5 50.8242 1315.12 58.6852 1315.12 66.9422C1315.12 74.8641 1312.6 82.6336 1307.9 89.2149Z" fill="#D9E5BA"/>
</g>
</g>
<defs>
<clipPath id="clip0_17_3">
<rect width="200" height="177.778" fill="white" transform="translate(52 244)"/>
</clipPath>
<clipPath id="clip1_17_3">
<rect width="156" height="156" fill="white" transform="translate(1188 221)"/>
</clipPath>
<clipPath id="clip2_17_3">
<rect width="156" height="156" fill="white" transform="translate(1164 -6)"/>
</clipPath>
</defs>
</svg>
