<?xml version="1.0" encoding="UTF-8"?>
<svg width="279px" height="185px" viewBox="0 0 279 185" version="1.1" xmlns="http://www.w3.org/2000/svg" xmlns:xlink="http://www.w3.org/1999/xlink">
    <!-- Generator: Sketch 60.1 (88133) - https://sketch.com -->
    <title>logo_symbol</title>
    <desc>Created with Sketch.</desc>
    <g id="Page-1" stroke="none" stroke-width="1" fill="none" fill-rule="evenodd">
        <g id="logo_symbol" fill="#336633" fill-rule="nonzero">
            <path d="M209.100192,184.08786 L69.2499953,184.08786 C45.796065,184.08786 26.7845961,165.076391 26.7845961,141.62246 L26.7845961,64.6040588 C26.7845961,59.5856353 30.8493775,55.5161329 35.867801,55.5161329 C40.8862245,55.5161329 44.9557269,59.5856353 44.9557269,64.6040588 L44.9557269,141.627181 C44.9557269,155.039544 55.832912,165.912008 69.2452743,165.912008 L209.104913,165.912008 C222.517275,165.912008 233.389739,155.039544 233.389739,141.627181 L233.389739,64.6040588 C233.389739,59.5856353 237.459242,55.5161329 242.477665,55.5161329 L242.477665,55.5161329 C247.496089,55.5161329 251.56087,59.5856353 251.56087,64.6040588 L251.56087,141.627181 C251.56087,165.076391 232.549401,184.08786 209.100192,184.08786" id="Fill-230"></path>
            <path d="M269.25754,109.875621 L256.94045,109.875621 L256.94045,91.6997688 L269.25754,91.6997688 C274.275964,91.6997688 278.345466,95.7692712 278.345466,100.787695 C278.345466,105.806118 274.275964,109.875621 269.25754,109.875621" id="Fill-231"></path>
            <path d="M9.08792589,91.7011851 L21.4050161,91.7011851 L21.4050161,109.877037 L9.08792589,109.877037 C4.0695024,109.877037 1.26121336e-13,105.807535 1.26121336e-13,100.789111 C1.26121336e-13,95.7706875 4.0695024,91.7011851 9.08792589,91.7011851" id="Fill-232"></path>
            <path d="M220.722351,31.6543081 L151.290597,31.6543081 C149.619363,31.6543081 148.259715,30.299381 148.259715,28.6234258 L148.259715,18.1758518 C148.259715,17.9303598 148.207784,17.7037517 148.1889,17.4629807 C151.455832,16.0844486 153.745517,12.8552843 153.745517,9.08792589 C153.745517,4.0695024 149.676015,2.13162821e-14 144.657592,2.13162821e-14 L133.690707,2.13162821e-14 C128.672284,2.13162821e-14 124.602782,4.0695024 124.602782,9.08792589 C124.602782,12.8552843 126.892467,16.0844486 130.159399,17.4629807 C130.140515,17.7037517 130.088584,17.9303598 130.088584,18.1758518 L130.088584,28.6234258 C130.088584,30.299381 128.728936,31.6543081 127.057702,31.6543081 L57.625948,31.6543081 C52.6075245,31.6543081 48.5380221,35.7238105 48.5380221,40.742234 C48.5380221,45.7606575 52.6075245,49.8301599 57.625948,49.8301599 L220.722351,49.8301599 C225.740775,49.8301599 229.810277,45.7606575 229.810277,40.742234 C229.810277,35.7238105 225.740775,31.6543081 220.722351,31.6543081" id="Fill-233"></path>
            <path d="M120.039463,105.472816 C120.039463,113.078347 113.873836,119.243974 106.268304,119.243974 C98.6627724,119.243974 92.4971458,113.078347 92.4971458,105.472816 C92.4971458,97.8672838 98.6627724,91.7016572 106.268304,91.7016572 C113.873836,91.7016572 120.039463,97.8672838 120.039463,105.472816" id="Fill-234"></path>
            <path d="M185.848793,105.472816 C185.848793,113.078347 179.683166,119.243974 172.077634,119.243974 C164.472103,119.243974 158.306476,113.078347 158.306476,105.472816 C158.306476,97.8672838 164.472103,91.7016572 172.077634,91.7016572 C179.683166,91.7016572 185.848793,97.8672838 185.848793,105.472816" id="Fill-235"></path>
        </g>
    </g>
</svg>