<?xml version="1.0" encoding="UTF-8"?>
<svg width="297px" height="172px" viewBox="0 0 297 172" version="1.1" xmlns="http://www.w3.org/2000/svg" xmlns:xlink="http://www.w3.org/1999/xlink">
    <!-- Generator: Sketch 60.1 (88133) - https://sketch.com -->
    <title>logo_custochef+tagline</title>
    <desc>Created with Sketch.</desc>
    <g id="Page-1" stroke="none" stroke-width="1" fill="none" fill-rule="evenodd">
        <g id="logo_custochef+tagline" fill-rule="nonzero">
            <path d="M22.3806334,89.0405038 C28.3438517,89.0405038 39.012399,91.5504045 39.012399,98.6421964 L39.012399,102.345329 L33.2387458,102.345329 L33.2387458,100.461434 C33.2387458,96.7597709 26.9625246,94.8773454 22.5055406,94.8773454 C13.5945115,94.8773454 6.68934571,101.592946 6.68934571,111.57083 C6.68934571,121.235711 13.6562304,128.956447 22.6936362,128.956447 C31.4812275,128.956447 36.6891244,122.930041 36.6891244,122.930041 L40.0792537,127.450213 C40.0792537,127.450213 33.8030326,134.856477 22.6319173,134.856477 C9.38881147,134.856477 0.163310086,124.62584 0.163310086,111.57083 C0.163310086,98.7685731 9.70328381,89.0405038 22.3806334,89.0405038" id="Fill-44" fill="#000000"></path>
            <path d="M47.2393773,108.936169 C47.2393773,107.992752 46.7368093,107.554842 45.8580502,107.554842 L43.2849612,107.554842 L43.2849612,102.345475 L49.2481795,102.345475 C52.1357409,102.345475 53.3275028,103.537237 53.3275028,106.236703 L53.3275028,121.299046 C53.3275028,125.692842 54.206262,129.207878 59.2275328,129.207878 C65.7535684,129.207878 69.5830773,123.495944 69.5830773,117.219723 L69.5830773,102.345475 L75.6697333,102.345475 L75.6697333,127.513548 C75.6697333,128.454026 76.1723013,128.893406 77.0510604,128.893406 L79.6241494,128.893406 L79.6241494,134.102772 L73.7873078,134.102772 C71.0878421,134.102772 69.7711729,132.846353 69.7711729,130.587736 L69.7711729,129.395974 C69.7711729,128.390838 69.8328917,127.576737 69.8328917,127.576737 L69.7079845,127.576737 C68.3898458,130.712643 64.3105225,134.856624 58.0343013,134.856624 C50.879321,134.856624 47.2393773,131.090304 47.2393773,122.680373 L47.2393773,108.936169 Z" id="Fill-46" fill="#000000"></path>
            <path d="M85.8417377,125.191009 C85.8417377,125.191009 89.6080581,129.897807 95.4448997,129.897807 C98.39418,129.897807 100.967269,128.579668 100.967269,125.818484 C100.967269,120.106549 83.6448398,120.735494 83.6448398,110.504857 C83.6448398,104.416731 88.980583,101.592358 95.4448997,101.592358 C99.2729391,101.592358 105.863633,102.910497 105.863633,107.743672 L105.863633,110.756141 L100.402982,110.756141 L100.402982,109.185249 C100.402982,107.302823 97.5786092,106.487252 95.6329953,106.487252 C92.0562399,106.487252 89.7329654,107.743672 89.7329654,110.253573 C89.7329654,116.27851 107.055395,114.960371 107.055395,125.5672 C107.055395,131.215946 102.035593,134.85589 95.3817114,134.85589 C86.9100619,134.85589 82.7043618,129.268862 82.7043618,129.268862 L85.8417377,125.191009 Z" id="Fill-48" fill="#000000"></path>
            <path d="M115.092514,107.241398 L115.217421,102.345035 L115.217421,93.6206317 L121.180639,93.6206317 L121.180639,99.3869374 C121.180639,101.021018 122.504656,102.345035 124.138737,102.345035 L128.774999,102.345035 L128.774999,107.241398 L121.180639,107.241398 L121.180639,121.801173 C121.180639,128.140583 125.574435,128.956154 127.89624,128.956154 C128.774999,128.956154 129.339286,128.829777 129.339286,128.829777 L129.339286,134.227239 C129.339286,134.227239 128.523715,134.353616 127.205577,134.353616 C123.189442,134.353616 115.092514,133.098665 115.092514,122.491837 L115.092514,107.241398 Z" id="Fill-50" fill="#000000"></path>
            <path d="M150.665722,101.542279 C160.157623,101.542279 167.827386,108.518805 167.827386,118.137285 C167.827386,127.819054 160.157623,134.858868 150.665722,134.858868 C141.17382,134.858868 133.567347,127.819054 133.567347,118.137285 C133.567347,108.518805 141.17382,101.542279 150.665722,101.542279 Z M150.665722,106.821772 C144.692992,106.821772 139.79029,111.536078 139.79029,118.137285 C139.79029,124.800308 144.692992,129.577903 150.665722,129.577903 C156.700269,129.577903 161.604443,124.800308 161.604443,118.137285 C161.604443,115.929809 161.056025,113.933339 160.100313,112.253606 L152.430997,119.922227 C151.366678,120.986546 149.641077,120.986546 148.576758,119.922227 C147.512439,118.857909 147.512439,117.132307 148.576758,116.067988 L156.292016,108.352367 C154.647433,107.369271 152.722216,106.821772 150.665722,106.821772 Z" id="Combined-Shape" fill="#000000"></path>
            <path d="M189.095348,101.592946 C192.923387,101.592946 200.517747,103.160899 200.517747,108.558361 L200.517747,111.822114 L194.995378,111.822114 L194.995378,110.066065 C194.995378,107.805979 191.417153,106.802313 189.095348,106.802313 C182.882315,106.802313 178.237235,111.445923 178.237235,118.160054 C178.237235,125.379692 183.50979,129.459015 189.40982,129.459015 C195.371569,129.459015 199.262797,125.06522 199.262797,125.06522 L201.899074,129.395827 C201.899074,129.395827 197.380371,134.856477 188.970441,134.856477 C178.991087,134.856477 172.024203,127.764685 172.024203,118.223242 C172.024203,108.872834 178.86618,101.592946 189.095348,101.592946" id="Fill-54" fill="#000000"></path>
            <path d="M208.117103,96.3837266 C208.117103,95.4417791 207.614535,95.0023996 206.737246,95.0023996 L204.164157,95.0023996 L204.164157,89.7945026 L210.187624,89.7945026 C213.011997,89.7945026 214.205229,90.9847951 214.205229,93.6842609 L214.205229,106.048608 C214.205229,107.554842 214.080322,108.684885 214.080322,108.684885 L214.205229,108.684885 C215.585086,105.609228 219.66441,101.593093 226.003819,101.593093 C233.473272,101.593093 236.861932,105.670947 236.861932,113.767875 L236.861932,127.513548 C236.861932,128.454026 237.36303,128.893406 238.241789,128.893406 L240.814878,128.893406 L240.814878,134.102772 L234.853129,134.102772 C232.028756,134.102772 230.836994,132.909541 230.836994,130.086637 L230.836994,115.149202 C230.836994,110.692218 229.895047,107.178651 224.810588,107.178651 C219.978882,107.178651 216.087654,110.440934 214.769516,115.024295 C214.331606,116.277775 214.205229,117.722291 214.205229,119.228525 L214.205229,134.102772 L208.117103,134.102772 L208.117103,96.3837266 Z" id="Fill-56" fill="#000000"></path>
            <path d="M267.681837,114.521433 C267.493741,109.248878 264.1668,106.424505 260.213853,106.424505 C255.570243,106.424505 251.803923,109.248878 250.861975,114.521433 L267.681837,114.521433 Z M260.277042,101.592799 C269.188071,101.592799 273.958058,108.245212 273.958058,116.467047 C273.958058,117.282617 273.769962,118.976947 273.769962,118.976947 L250.612161,118.976947 C250.988352,125.755736 255.883246,129.583776 261.531992,129.583776 C266.991173,129.583776 270.820682,125.880644 270.820682,125.880644 L273.456959,130.211251 C273.456959,130.211251 268.750161,134.85633 261.218989,134.85633 C251.176448,134.85633 244.33447,127.638162 244.33447,118.224565 C244.33447,108.120304 251.239636,101.592799 260.277042,101.592799 L260.277042,101.592799 Z" id="Fill-58" fill="#000000"></path>
            <path d="M282.058218,107.241398 L278.105272,107.241398 L278.105272,102.345035 L282.058218,102.345035 L282.058218,101.27818 C282.058218,90.7977282 290.028769,89.4795895 294.046374,89.4795895 C295.426231,89.4795895 296.368179,89.6676851 296.368179,89.6676851 L296.368179,94.8770515 C296.368179,94.8770515 295.740704,94.7521443 294.798756,94.7521443 C292.413763,94.7521443 288.146344,95.5045267 288.146344,101.403087 L288.146344,102.345035 L295.677515,102.345035 L295.677515,107.241398 L288.146344,107.241398 L288.146344,134.102332 L282.058218,134.102332 L282.058218,107.241398 Z" id="Fill-60" fill="#000000"></path>
            <g id="Group-7-Copy" transform="translate(107.000000, 0.000000)" fill="#3A5646">
                <path d="M62.2054335,54.6369705 L20.6012531,54.6369705 C13.623919,54.6369705 7.96817734,48.9943982 7.96817734,42.0333107 L7.96817734,19.1743772 C7.96817734,17.6849174 9.17741339,16.4770959 10.6703494,16.4770959 C12.1632854,16.4770959 13.3739259,17.6849174 13.3739259,19.1743772 L13.3739259,42.0347119 C13.3739259,46.0154787 16.609791,49.2424079 20.5998486,49.2424079 L62.2068379,49.2424079 C66.1968955,49.2424079 69.4313562,46.0154787 69.4313562,42.0347119 L69.4313562,19.1743772 C69.4313562,17.6849174 70.6419967,16.4770959 72.1349327,16.4770959 L72.1349327,16.4770959 C73.6278687,16.4770959 74.8371048,17.6849174 74.8371048,19.1743772 L74.8371048,42.0347119 C74.8371048,48.9943982 69.1813631,54.6369705 62.2054335,54.6369705" id="Fill-230-Copy"></path>
                <path d="M80.1017056,32.6109015 L76.4374816,32.6109015 L76.4374816,27.2163389 L80.1017056,27.2163389 C81.5946416,27.2163389 82.8052821,28.4241604 82.8052821,29.9136202 C82.8052821,31.4030799 81.5946416,32.6109015 80.1017056,32.6109015" id="Fill-231-Copy"></path>
                <path d="M2.70357652,27.2167592 L6.36780049,27.2167592 L6.36780049,32.6113218 L2.70357652,32.6113218 C1.2106405,32.6113218 1.26121336e-13,31.4035003 1.26121336e-13,29.9140405 C1.26121336e-13,28.4245808 1.2106405,27.2167592 2.70357652,27.2167592" id="Fill-232-Copy"></path>
                <path d="M65.6629216,9.394946 L45.007597,9.394946 C44.5104198,9.394946 44.1059367,8.99280588 44.1059367,8.49538518 L44.1059367,5.39456258 C44.1059367,5.32170096 44.0904877,5.25444407 44.0848699,5.18298363 C45.0567529,4.77383759 45.7379138,3.81542699 45.7379138,2.69728129 C45.7379138,1.20782154 44.5272733,2.13162821e-14 43.0343373,2.13162821e-14 L39.7717875,2.13162821e-14 C38.2788515,2.13162821e-14 37.068211,1.20782154 37.068211,2.69728129 C37.068211,3.81542699 37.7493718,4.77383759 38.7212549,5.18298363 C38.7156371,5.25444407 38.7001881,5.32170096 38.7001881,5.39456258 L38.7001881,8.49538518 C38.7001881,8.99280588 38.295705,9.394946 37.7985278,9.394946 L17.1432032,9.394946 C15.6502671,9.394946 14.4396266,10.6027675 14.4396266,12.0922273 C14.4396266,13.581687 15.6502671,14.7895086 17.1432032,14.7895086 L65.6629216,14.7895086 C67.1558576,14.7895086 68.3664981,13.581687 68.3664981,12.0922273 C68.3664981,10.6027675 67.1558576,9.394946 65.6629216,9.394946" id="Fill-233-Copy"></path>
                <path d="M35.7106645,31.3041562 C35.7106645,33.5614654 33.8764458,35.3914131 31.6138683,35.3914131 C29.3512907,35.3914131 27.517072,33.5614654 27.517072,31.3041562 C27.517072,29.0468471 29.3512907,27.2168993 31.6138683,27.2168993 C33.8764458,27.2168993 35.7106645,29.0468471 35.7106645,31.3041562" id="Fill-234-Copy"></path>
                <path d="M55.2883505,31.3041562 C55.2883505,33.5614654 53.4541318,35.3914131 51.1915543,35.3914131 C48.9289768,35.3914131 47.0947581,33.5614654 47.0947581,31.3041562 C47.0947581,29.0468471 48.9289768,27.2168993 51.1915543,27.2168993 C53.4541318,27.2168993 55.2883505,29.0468471 55.2883505,31.3041562" id="Fill-235-Copy"></path>
            </g>
            <path d="M32.106,171.114 C32.6253333,171.114 33.1541667,171.044333 33.6925,170.905 C34.2308333,170.765667 34.7406667,170.563 35.222,170.297 C35.7033333,170.031 36.1403333,169.704833 36.533,169.3185 C36.9256667,168.932167 37.2296667,168.485667 37.445,167.979 L37.445,167.979 L36.343,167.409 C36.1276667,167.852333 35.8616667,168.229167 35.545,168.5395 C35.2283333,168.849833 34.8831667,169.1095 34.5095,169.3185 C34.1358333,169.5275 33.7495,169.6795 33.3505,169.7745 C32.9515,169.8695 32.562,169.917 32.182,169.917 C31.46,169.917 30.7918333,169.761833 30.1775,169.4515 C29.5631667,169.141167 29.0311667,168.723167 28.5815,168.1975 C28.1318333,167.671833 27.7771667,167.067 27.5175,166.383 C27.2578333,165.699 27.128,164.983333 27.128,164.236 C27.128,163.552 27.2356667,162.8775 27.451,162.2125 C27.6663333,161.5475 27.9861667,160.949 28.4105,160.417 C28.8348333,159.885 29.3573333,159.454333 29.978,159.125 C30.5986667,158.795667 31.3143333,158.631 32.125,158.631 C32.4923333,158.631 32.866,158.672167 33.246,158.7545 C33.626,158.836833 33.9933333,158.973 34.348,159.163 C34.7026667,159.353 35.0351667,159.6 35.3455,159.904 C35.6558333,160.208 35.9186667,160.581667 36.134,161.025 L36.134,161.025 L37.179,160.379 C36.7736667,159.505 36.1435,158.795667 35.2885,158.251 C34.4335,157.706333 33.4043333,157.434 32.201,157.434 C31.1876667,157.434 30.282,157.6335 29.484,158.0325 C28.686,158.4315 28.0146667,158.947667 27.47,159.581 C26.9253333,160.214333 26.5105,160.933167 26.2255,161.7375 C25.9405,162.541833 25.798,163.349333 25.798,164.16 C25.798,165.021333 25.9531667,165.866833 26.2635,166.6965 C26.5738333,167.526167 27.0076667,168.267167 27.565,168.9195 C28.1223333,169.571833 28.7873333,170.100667 29.56,170.506 C30.3326667,170.911333 31.1813333,171.114 32.106,171.114 Z M45.7045714,171.095 C46.6039048,171.095 47.4399048,170.908167 48.2125714,170.5345 C48.9852381,170.160833 49.6534048,169.6605 50.2170714,169.0335 C50.7807381,168.4065 51.2240714,167.681333 51.5470714,166.858 C51.8700714,166.034667 52.0315714,165.173333 52.0315714,164.274 C52.0315714,163.425333 51.8795714,162.5925 51.5755714,161.7755 C51.2715714,160.9585 50.8440714,160.227 50.2930714,159.581 C49.7420714,158.935 49.0770714,158.4125 48.2980714,158.0135 C47.5190714,157.6145 46.6609048,157.415 45.7235714,157.415 C44.8242381,157.415 43.9882381,157.601833 43.2155714,157.9755 C42.4429048,158.349167 41.7715714,158.852667 41.2015714,159.486 C40.6315714,160.119333 40.1850714,160.847667 39.8620714,161.671 C39.5390714,162.494333 39.3775714,163.355667 39.3775714,164.255 C39.3775714,165.116333 39.5295714,165.958667 39.8335714,166.782 C40.1375714,167.605333 40.5682381,168.336833 41.1255714,168.9765 C41.6829048,169.616167 42.3510714,170.129167 43.1300714,170.5155 C43.9090714,170.901833 44.7672381,171.095 45.7045714,171.095 Z M45.7045714,169.898 C44.9572381,169.898 44.2795714,169.742833 43.6715714,169.4325 C43.0635714,169.122167 42.5379048,168.704167 42.0945714,168.1785 C41.6512381,167.652833 41.3092381,167.051167 41.0685714,166.3735 C40.8279048,165.695833 40.7075714,164.989667 40.7075714,164.255 C40.7075714,163.558333 40.8247381,162.874333 41.0590714,162.203 C41.2934048,161.531667 41.6259048,160.93 42.0565714,160.398 C42.4872381,159.866 43.0129048,159.4385 43.6335714,159.1155 C44.2542381,158.7925 44.9445714,158.631 45.7045714,158.631 C46.4392381,158.631 47.1105714,158.786167 47.7185714,159.0965 C48.3265714,159.406833 48.8522381,159.821667 49.2955714,160.341 C49.7389048,160.860333 50.0840714,161.458833 50.3310714,162.1365 C50.5780714,162.814167 50.7015714,163.520333 50.7015714,164.255 C50.7015714,164.951667 50.5844048,165.635667 50.3500714,166.307 C50.1157381,166.978333 49.7832381,167.58 49.3525714,168.112 C48.9219048,168.644 48.3962381,169.074667 47.7755714,169.404 C47.1549048,169.733333 46.4645714,169.898 45.7045714,169.898 Z M56.5481429,171 L56.5481429,159.923 L61.4691429,168.492 L62.2481429,168.492 L67.1691429,159.923 L67.1691429,171 L68.4991429,171 L68.4991429,157.51 L67.1501429,157.51 L61.8491429,166.744 L56.5861429,157.51 L55.2181429,157.51 L55.2181429,171 L56.5481429,171 Z M73.8897143,171 L73.8897143,157.51 L72.5597143,157.51 L72.5597143,171 L73.8897143,171 Z M82.5292857,171 C83.5172857,171 84.407119,170.8385 85.1987857,170.5155 C85.9904524,170.1925 86.668119,169.7365 87.2317857,169.1475 C87.7954524,168.5585 88.2292857,167.849167 88.5332857,167.0195 C88.8372857,166.189833 88.9892857,165.262 88.9892857,164.236 C88.9892857,163.311333 88.853119,162.4405 88.5807857,161.6235 C88.3084524,160.8065 87.903119,160.094 87.3647857,159.486 C86.8264524,158.878 86.155119,158.396667 85.3507857,158.042 C84.5464524,157.687333 83.6059524,157.51 82.5292857,157.51 L82.5292857,157.51 L77.9502857,157.51 L77.9502857,171 L82.5292857,171 Z M82.5292857,169.822 L79.2802857,169.822 L79.2802857,158.688 L82.5292857,158.688 C83.352619,158.688 84.0809524,158.824167 84.7142857,159.0965 C85.347619,159.368833 85.8827857,159.752 86.3197857,160.246 C86.7567857,160.74 87.0892857,161.325833 87.3172857,162.0035 C87.5452857,162.681167 87.6592857,163.425333 87.6592857,164.236 C87.6592857,165.034 87.5484524,165.771833 87.3267857,166.4495 C87.105119,167.127167 86.7789524,167.716167 86.3482857,168.2165 C85.917619,168.716833 85.3824524,169.1095 84.7427857,169.3945 C84.103119,169.6795 83.3652857,169.822 82.5292857,169.822 L82.5292857,169.822 Z M91.7008571,171 L93.4298571,166.782 L99.4908571,166.782 L101.238857,171 L102.644857,171 L97.0398571,157.51 L95.9188571,157.51 L90.2758571,171 L91.7008571,171 Z M99.1868571,165.737 L93.7148571,165.737 L96.4698571,159.068 L99.1868571,165.737 Z M111.526,171 L111.526,166.022 L115.896,166.022 C116.478667,166.022 117.0075,165.901667 117.4825,165.661 C117.9575,165.420333 118.366,165.103667 118.708,164.711 C119.05,164.318333 119.316,163.8655 119.506,163.3525 C119.696,162.8395 119.791,162.304333 119.791,161.747 C119.791,161.227667 119.689667,160.714667 119.487,160.208 C119.284333,159.701333 119.005667,159.2485 118.651,158.8495 C118.296333,158.4505 117.875167,158.1275 117.3875,157.8805 C116.899833,157.6335 116.364667,157.51 115.782,157.51 L115.782,157.51 L110.196,157.51 L110.196,171 L111.526,171 Z M115.839,164.844 L111.526,164.844 L111.526,158.688 L115.725,158.688 C116.092333,158.688 116.443833,158.767167 116.7795,158.9255 C117.115167,159.083833 117.4065,159.302333 117.6535,159.581 C117.9005,159.859667 118.096833,160.185833 118.2425,160.5595 C118.388167,160.933167 118.461,161.329 118.461,161.747 C118.461,162.152333 118.397667,162.541833 118.271,162.9155 C118.144333,163.289167 117.967,163.6185 117.739,163.9035 C117.511,164.1885 117.2355,164.4165 116.9125,164.5875 C116.5895,164.7585 116.231667,164.844 115.839,164.844 L115.839,164.844 Z M131.755571,171 L131.755571,169.822 L124.022571,169.822 L124.022571,164.673 L130.615571,164.673 L130.615571,163.552 L124.022571,163.552 L124.022571,158.688 L131.584571,158.688 L131.584571,157.51 L122.692571,157.51 L122.692571,171 L131.755571,171 Z M136.272143,171 L136.272143,166.022 L140.262143,166.022 L143.435143,171 L144.936143,171 L141.630143,165.794 C142.086143,165.705333 142.49781,165.5375 142.865143,165.2905 C143.232476,165.0435 143.545976,164.7395 143.805643,164.3785 C144.06531,164.0175 144.267976,163.612167 144.413643,163.1625 C144.55931,162.712833 144.632143,162.241 144.632143,161.747 C144.632143,161.227667 144.533976,160.714667 144.337643,160.208 C144.14131,159.701333 143.86581,159.2485 143.511143,158.8495 C143.156476,158.4505 142.73531,158.1275 142.247643,157.8805 C141.759976,157.6335 141.22481,157.51 140.642143,157.51 L140.642143,157.51 L134.942143,157.51 L134.942143,171 L136.272143,171 Z M140.680143,164.844 L136.272143,164.844 L136.272143,158.688 L140.566143,158.688 C140.933476,158.688 141.284976,158.770333 141.620643,158.935 C141.95631,159.099667 142.247643,159.321333 142.494643,159.6 C142.741643,159.878667 142.937976,160.204833 143.083643,160.5785 C143.22931,160.952167 143.302143,161.341667 143.302143,161.747 C143.302143,162.152333 143.23881,162.538667 143.112143,162.906 C142.985476,163.273333 142.808143,163.602667 142.580143,163.894 C142.352143,164.185333 142.076643,164.4165 141.753643,164.5875 C141.430643,164.7585 141.07281,164.844 140.680143,164.844 L140.680143,164.844 Z M152.359714,171.114 C153.069048,171.114 153.721381,171.041167 154.316714,170.8955 C154.912048,170.749833 155.425048,170.525 155.855714,170.221 C156.286381,169.917 156.622048,169.537 156.862714,169.081 C157.103381,168.625 157.223714,168.086667 157.223714,167.466 C157.223714,166.858 157.116048,166.351333 156.900714,165.946 C156.685381,165.540667 156.375048,165.1955 155.969714,164.9105 C155.564381,164.6255 155.073548,164.388 154.497214,164.198 C153.920881,164.008 153.271714,163.837 152.549714,163.685 C151.903714,163.545667 151.343214,163.406333 150.868214,163.267 C150.393214,163.127667 150.003714,162.963 149.699714,162.773 C149.395714,162.583 149.170881,162.358167 149.025214,162.0985 C148.879548,161.838833 148.806714,161.506333 148.806714,161.101 C148.806714,160.328333 149.079048,159.717167 149.623714,159.2675 C150.168381,158.817833 151.036048,158.593 152.226714,158.593 C153.037381,158.593 153.759381,158.726 154.392714,158.992 C155.026048,159.258 155.532714,159.606333 155.912714,160.037 L155.912714,160.037 L156.558714,158.973 C155.988714,158.479 155.352214,158.095833 154.649214,157.8235 C153.946214,157.551167 153.145048,157.415 152.245714,157.415 C151.536381,157.415 150.890381,157.5005 150.307714,157.6715 C149.725048,157.8425 149.218381,158.0895 148.787714,158.4125 C148.357048,158.7355 148.024548,159.140833 147.790214,159.6285 C147.555881,160.116167 147.438714,160.670333 147.438714,161.291 C147.438714,161.835667 147.530548,162.294833 147.714214,162.6685 C147.897881,163.042167 148.173381,163.362 148.540714,163.628 C148.908048,163.894 149.357714,164.115667 149.889714,164.293 C150.421714,164.470333 151.042381,164.641333 151.751714,164.806 C152.423048,164.958 153.012048,165.11 153.518714,165.262 C154.025381,165.414 154.449714,165.5945 154.791714,165.8035 C155.133714,166.0125 155.390214,166.2595 155.561214,166.5445 C155.732214,166.8295 155.817714,167.181 155.817714,167.599 C155.817714,168.384333 155.516881,168.970167 154.915214,169.3565 C154.313548,169.742833 153.474381,169.936 152.397714,169.936 C151.878381,169.936 151.384381,169.8885 150.915714,169.7935 C150.447048,169.6985 150.006881,169.5655 149.595214,169.3945 C149.183548,169.2235 148.809881,169.024 148.474214,168.796 C148.138548,168.568 147.850381,168.327333 147.609714,168.074 L147.609714,168.074 L146.944714,169.157 C148.464714,170.461667 150.269714,171.114 152.359714,171.114 Z M165.673286,171.095 C166.572619,171.095 167.408619,170.908167 168.181286,170.5345 C168.953952,170.160833 169.622119,169.6605 170.185786,169.0335 C170.749452,168.4065 171.192786,167.681333 171.515786,166.858 C171.838786,166.034667 172.000286,165.173333 172.000286,164.274 C172.000286,163.425333 171.848286,162.5925 171.544286,161.7755 C171.240286,160.9585 170.812786,160.227 170.261786,159.581 C169.710786,158.935 169.045786,158.4125 168.266786,158.0135 C167.487786,157.6145 166.629619,157.415 165.692286,157.415 C164.792952,157.415 163.956952,157.601833 163.184286,157.9755 C162.411619,158.349167 161.740286,158.852667 161.170286,159.486 C160.600286,160.119333 160.153786,160.847667 159.830786,161.671 C159.507786,162.494333 159.346286,163.355667 159.346286,164.255 C159.346286,165.116333 159.498286,165.958667 159.802286,166.782 C160.106286,167.605333 160.536952,168.336833 161.094286,168.9765 C161.651619,169.616167 162.319786,170.129167 163.098786,170.5155 C163.877786,170.901833 164.735952,171.095 165.673286,171.095 Z M165.673286,169.898 C164.925952,169.898 164.248286,169.742833 163.640286,169.4325 C163.032286,169.122167 162.506619,168.704167 162.063286,168.1785 C161.619952,167.652833 161.277952,167.051167 161.037286,166.3735 C160.796619,165.695833 160.676286,164.989667 160.676286,164.255 C160.676286,163.558333 160.793452,162.874333 161.027786,162.203 C161.262119,161.531667 161.594619,160.93 162.025286,160.398 C162.455952,159.866 162.981619,159.4385 163.602286,159.1155 C164.222952,158.7925 164.913286,158.631 165.673286,158.631 C166.407952,158.631 167.079286,158.786167 167.687286,159.0965 C168.295286,159.406833 168.820952,159.821667 169.264286,160.341 C169.707619,160.860333 170.052786,161.458833 170.299786,162.1365 C170.546786,162.814167 170.670286,163.520333 170.670286,164.255 C170.670286,164.951667 170.553119,165.635667 170.318786,166.307 C170.084452,166.978333 169.751952,167.58 169.321286,168.112 C168.890619,168.644 168.364952,169.074667 167.744286,169.404 C167.123619,169.733333 166.433286,169.898 165.673286,169.898 Z M176.516857,171 L176.516857,159.98 L185.313857,171 L186.472857,171 L186.472857,157.529 L185.142857,157.529 L185.142857,168.739 L176.212857,157.51 L175.186857,157.51 L175.186857,171 L176.516857,171 Z M190.495429,171 L192.224429,166.782 L198.285429,166.782 L200.033429,171 L201.439429,171 L195.834429,157.51 L194.713429,157.51 L189.070429,171 L190.495429,171 Z M197.981429,165.737 L192.509429,165.737 L195.264429,159.068 L197.981429,165.737 Z M213.176,171 L213.176,169.822 L205.386,169.822 L205.386,157.51 L204.056,157.51 L204.056,171 L213.176,171 Z M217.141571,171 L217.141571,157.51 L215.811571,157.51 L215.811571,171 L217.141571,171 Z M230.797143,171 L230.797143,169.822 L221.753143,169.822 L230.816143,158.555 L230.816143,157.51 L220.252143,157.51 L220.252143,158.688 L229.277143,158.688 L220.100143,169.955 L220.100143,171 L230.797143,171 Z M233.793714,171 L235.522714,166.782 L241.583714,166.782 L243.331714,171 L244.737714,171 L239.132714,157.51 L238.011714,157.51 L232.368714,171 L233.793714,171 Z M241.279714,165.737 L235.807714,165.737 L238.562714,159.068 L241.279714,165.737 Z M251.933286,171 C252.921286,171 253.811119,170.8385 254.602786,170.5155 C255.394452,170.1925 256.072119,169.7365 256.635786,169.1475 C257.199452,168.5585 257.633286,167.849167 257.937286,167.0195 C258.241286,166.189833 258.393286,165.262 258.393286,164.236 C258.393286,163.311333 258.257119,162.4405 257.984786,161.6235 C257.712452,160.8065 257.307119,160.094 256.768786,159.486 C256.230452,158.878 255.559119,158.396667 254.754786,158.042 C253.950452,157.687333 253.009952,157.51 251.933286,157.51 L251.933286,157.51 L247.354286,157.51 L247.354286,171 L251.933286,171 Z M251.933286,169.822 L248.684286,169.822 L248.684286,158.688 L251.933286,158.688 C252.756619,158.688 253.484952,158.824167 254.118286,159.0965 C254.751619,159.368833 255.286786,159.752 255.723786,160.246 C256.160786,160.74 256.493286,161.325833 256.721286,162.0035 C256.949286,162.681167 257.063286,163.425333 257.063286,164.236 C257.063286,165.034 256.952452,165.771833 256.730786,166.4495 C256.509119,167.127167 256.182952,167.716167 255.752286,168.2165 C255.321619,168.716833 254.786452,169.1095 254.146786,169.3945 C253.507119,169.6795 252.769286,169.822 251.933286,169.822 L251.933286,169.822 Z M261.104857,171 L262.833857,166.782 L268.894857,166.782 L270.642857,171 L272.048857,171 L266.443857,157.51 L265.322857,157.51 L259.679857,171 L261.104857,171 Z M268.590857,165.737 L263.118857,165.737 L265.873857,159.068 L268.590857,165.737 Z" id="COMIDAPERSONALIZADA" fill="#000000"></path>
        </g>
    </g>
</svg>