<svg width="63" height="56" viewBox="0 0 63 56" fill="none" xmlns="http://www.w3.org/2000/svg">
<path d="M19.4469 19.4578L15.9469 22.9578C15.0958 23.8123 15.0958 25.1967 15.9469 26.0509C16.3844 26.4688 16.9422 26.6875 17.5 26.6875C18.0578 26.6875 18.6211 26.4739 19.0488 26.0467L22.5488 22.5467C23.3998 21.6922 23.3998 20.3078 22.5488 19.4535C21.6891 18.5938 20.3109 18.5938 19.4469 19.4578ZM62.0375 13.6719L57.3169 6.30656C55.4914 3.46828 51.6972 2.62719 48.8578 4.45594L46.2503 6.30656C41.8688 3.33922 36.7063 1.75 31.4781 1.75C26.6284 1.75 21.7241 3.09203 17.3359 5.90297C8.29391 11.6047 4.01735 22.1156 5.58141 32.0797L2.82079 33.8516C-0.0229622 35.6716 -0.857494 39.4669 0.967975 42.315L5.6886 49.6803C6.85782 51.5025 8.83641 52.4989 10.8566 52.4989C11.9842 52.4972 13.1294 52.1862 14.1477 51.5316L16.7497 49.6842C21.1313 52.6641 26.2828 54.25 31.5219 54.25C36.3716 54.25 41.2759 52.908 45.6641 50.097C54.7072 44.3002 58.9859 33.8877 57.4219 23.9127L60.1836 22.1397C63.0219 20.3219 63.8531 16.5266 62.0375 13.6719ZM11.3203 47.1187C11.0503 47.2862 10.7905 47.264 10.6607 47.2367C10.5274 47.2076 10.2813 47.1187 10.1104 46.8538L5.38673 39.4844C5.12696 39.0776 5.24323 38.5341 5.65338 38.2725L6.99432 37.4131C7.62257 39.0439 8.42385 40.6353 9.40385 42.1644C10.3679 43.6683 11.4929 44.9983 12.6895 46.2342L11.3203 47.1187ZM52.0078 32.4844C50.8091 37.963 47.5486 42.6475 42.8269 45.675C39.4406 47.8516 35.525 49 31.5219 49C24.3184 49 17.6969 45.3862 13.825 39.3312C10.7964 34.6063 9.79016 28.9953 10.9922 23.4172C12.1844 18.0359 15.4438 13.3547 20.1688 10.3228C23.5594 8.14953 27.475 7 31.4781 7C38.6816 7 45.3031 10.6137 49.175 16.6687C52.2047 21.3937 53.2109 27.0047 52.0078 32.4844ZM57.3453 17.7188L56 18.5828C55.372 16.9542 54.5716 15.3639 53.5927 13.837C52.6275 12.3309 51.5014 10.9998 50.3038 9.76281L51.6797 8.88114C51.9464 8.71194 52.2026 8.7325 52.3393 8.76323C52.4727 8.79228 52.7188 8.88114 52.8896 9.14605L57.6102 16.5103C57.8703 16.9203 57.7609 17.4563 57.3453 17.7188ZM29.75 23.625C28.3008 23.625 27.125 24.7997 27.125 26.25C27.125 27.6992 28.3008 28.875 29.75 28.875C31.1992 28.875 32.375 27.6992 32.375 26.25C32.375 24.7953 31.2047 23.625 29.75 23.625ZM45.6969 22.9469L36.9469 31.6969C36.7828 31.8609 36.6905 32.0831 36.6905 32.3155C36.6905 32.5479 36.7828 32.7701 36.9469 32.9341C38.3239 34.3101 40.1319 34.9991 41.9409 34.9991C43.75 34.9991 45.5569 34.3104 46.935 32.9341C48.2672 31.5984 49 29.8266 49 27.9344C49 26.0422 48.2651 24.2736 46.9317 22.9403C46.5828 22.5969 46.0359 22.6078 45.6969 22.9469Z" fill="#336633"/>
<path opacity="0.4" d="M49.175 16.6687C45.2922 10.6137 38.675 7 31.4781 7C27.475 7 23.5594 8.14953 20.1688 10.3228C15.4438 13.3547 12.1844 18.0359 10.9922 23.4172C9.79016 28.9953 10.7964 34.6063 13.825 39.3312C17.7078 45.2922 24.325 49 31.5219 49C35.5272 49 39.4373 47.8505 42.8313 45.6772C47.553 42.6508 50.8134 37.9662 52.0122 32.4866C53.2109 27.0047 52.2047 21.3937 49.175 16.6687ZM31.5 9.625C35.3588 9.625 38.5 12.7641 38.5 16.625C38.5 17.1087 38.1069 17.5 37.625 17.5H25.375C24.8931 17.5 24.5 17.1087 24.5 16.625C24.5 12.7641 27.6391 9.625 31.5 9.625ZM32.375 26.25C32.375 27.6992 31.1992 28.875 29.75 28.875C28.3008 28.875 27.125 27.6992 27.125 26.25C27.125 24.7997 28.3008 23.625 29.75 23.625C31.1992 23.625 32.375 24.7953 32.375 26.25ZM15.9469 26.0422C15.0958 25.1877 15.0958 23.8033 15.9469 22.9491L19.4469 19.4491C20.3013 18.5946 21.6891 18.5946 22.5433 19.4491C23.3943 20.3035 23.3943 21.688 22.5433 22.5422L19.0433 26.0422C18.6266 26.4688 18.0578 26.6875 17.5 26.6875C16.9422 26.6875 16.3844 26.4688 15.9469 26.0422ZM29.75 45.5C26.8548 45.5 24.5 43.1452 24.5 40.25V37.4741L21.6016 34.5734C21.2844 34.8141 20.9234 34.9563 20.5516 34.9563C20.1038 34.9563 19.656 34.7854 19.3145 34.4435C18.6309 33.7617 18.6309 32.6519 19.3145 31.9694L21.4681 29.8148C22.1517 29.1312 23.2597 29.1312 23.9422 29.8148C24.5691 30.44 24.5929 31.4105 24.0697 32.0974L26.9736 35.0013H29.75C32.6452 35.0013 35 37.3562 35 40.2513C35 43.1465 32.6484 45.5 29.75 45.5ZM40.25 42.875C38.8008 42.875 37.625 41.6992 37.625 40.25C37.625 38.7997 38.8008 37.625 40.25 37.625C41.6992 37.625 42.875 38.7997 42.875 40.25C42.875 41.7047 41.7047 42.875 40.25 42.875ZM46.9328 32.9328C45.5558 34.3088 43.7478 34.9978 41.9388 34.9978C40.1297 34.9978 38.3228 34.3091 36.9447 32.9328C36.7806 32.7688 36.6883 32.5466 36.6883 32.3142C36.6883 32.0818 36.7806 31.8596 36.9447 31.6956L45.6947 22.9456C46.0331 22.6072 46.5868 22.6004 46.9317 22.9456C48.265 24.2788 49 26.0529 49 27.9396C49 29.8263 48.2672 31.5984 46.9328 32.9328Z" fill="#336633"/>
</svg>
