<svg width="56" height="56" viewBox="0 0 56 56" fill="none" xmlns="http://www.w3.org/2000/svg">
<g clip-path="url(#clip0_20_88)">
<path d="M54.2281 31.5H1.77078C0.77164 31.5 -0.0764756 32.3531 0.00555562 33.3484C0.744712 41.7025 6.37993 48.5953 14.0165 51.275V52.5C14.0165 54.4272 15.597 56 17.5263 56H38.5482C40.4787 56 42.0526 54.4272 42.0526 52.5V51.2422C49.6498 48.5494 55.2651 41.6719 55.987 33.3484C56.0766 32.3531 55.2453 31.5 54.2281 31.5ZM18.5281 28H26.25V12.25C26.25 11.2875 25.4625 10.5 24.5 10.5C23.5375 10.5 22.75 11.2875 22.75 12.25V27.2781L11.7359 16.2641C11.0523 15.5805 9.94437 15.5805 9.26187 16.2641C8.57937 16.9477 8.57828 18.0556 9.26187 18.7381L18.5281 28Z" fill="#336633"/>
<path opacity="0.4" d="M45.5219 10.5C45.809 10.5 46.0826 10.5684 46.3697 10.582C44.4391 8.40875 41.6609 7 38.5219 7C37.5917 7.01367 36.6516 7.15433 35.7623 7.41409C33.8297 2.91594 29.4109 0 24.5109 0C19.6219 0 15.1922 2.91156 13.2562 7.41016C12.3703 7.15094 11.4406 7.01422 10.5098 7C4.71078 7 0.0055542 11.7031 0.0055542 17.5C0.0055542 23.2969 4.71087 28 10.5099 28H18.526L9.26297 18.7359C8.57937 18.0523 8.57937 16.9444 9.26297 16.2619C9.94656 15.5794 11.0545 15.5783 11.737 16.2619L22.75 27.2781V12.25C22.75 11.2875 23.5375 10.5 24.5 10.5C25.4625 10.5 26.25 11.2827 26.25 12.25V28H32.0097C31.6952 26.8647 31.5312 25.69 31.5175 24.5C31.5328 16.7781 37.8 10.5142 45.5219 10.5ZM45.5 14C39.7009 14 35 18.7009 35 24.5C35 25.7337 35.2521 26.9008 35.643 28H55.3524C55.7484 26.8953 56 25.7359 56 24.5C56 18.6047 51.2969 14 45.5 14Z" fill="#336633"/>
</g>
<defs>
<clipPath id="clip0_20_88">
<rect width="56" height="56" fill="white"/>
</clipPath>
</defs>
</svg>
