<svg width="49" height="56" viewBox="0 0 49 56" fill="none" xmlns="http://www.w3.org/2000/svg">
<g clip-path="url(#clip0_23_5)">
<path d="M10.5 10.1784V17.5H38.5V10.1784C40.5344 9.45547 42 7.53266 42 5.25C42 2.35047 39.6484 0 36.75 0C35.1728 0 33.775 0.709625 32.8125 1.81016C31.85 0.709625 30.45 0 28.875 0C27.0484 0 25.4406 0.936688 24.5 2.35484C23.5594 0.936688 21.9516 0 20.125 0C18.55 0 17.15 0.709625 16.1875 1.81016C15.225 0.709625 13.825 0 12.25 0C9.35047 0 7 2.35047 7 5.25C7 7.53266 8.46562 9.45547 10.5 10.1784ZM38.5 38.9922V35.1323L14 44.9312V56H45.5C47.4327 56 49 54.4327 49 52.5C49 45.9813 44.5266 40.5563 38.5 38.9922ZM22.75 49C21.7875 49 21 48.2125 21 47.25C21 46.2875 21.7875 45.5 22.75 45.5C23.7125 45.5 24.5 46.2833 24.5 47.25C24.5 48.2125 23.7125 49 22.75 49ZM33.25 49C32.2836 49 31.5 48.2164 31.5 47.25C31.5 46.2833 32.2836 45.5 33.25 45.5C34.2164 45.5 35 46.2833 35 47.25C35 48.2125 34.2125 49 33.25 49ZM10.5 35V38.9955C4.47234 40.5562 0 45.9813 0 52.5C0 54.4327 1.56734 56 3.5 56H10.5V42.5688L22.1375 37.9127L10.5 35Z" fill="#336633"/>
<path opacity="0.4" d="M38.5 17.5V19.25C38.5 26.9883 32.2383 33.25 24.5 33.25C16.7617 33.25 10.5 26.9883 10.5 19.25V17.5H38.5Z" fill="#336633"/>
</g>
<defs>
<clipPath id="clip0_23_5">
<rect width="49" height="56" fill="white"/>
</clipPath>
</defs>
</svg>
